<svg width="131" height="45" viewBox="0 0 131 45" fill="none" xmlns="http://www.w3.org/2000/svg">
<path d="M19.6991 30.0741C18.4695 30.0741 17.333 29.8319 16.2896 29.3475C15.2649 28.8631 14.4172 28.1644 13.7465 27.2515L15.7586 24.7643C16.8206 26.2548 18.0968 27 19.5873 27C21.6554 27 22.6894 25.7983 22.6894 23.3949V10.4835H15.7028V7.43733H26.2945V23.1993C26.2945 25.4909 25.7356 27.2049 24.6177 28.3414C23.4999 29.4966 21.8603 30.0741 19.6991 30.0741ZM37.7642 27.1956C36.2551 27.1956 34.8951 26.8696 33.684 26.2175C32.473 25.5654 31.5228 24.6618 30.8335 23.5067C30.1627 22.3329 29.8274 21.0101 29.8274 19.5382C29.8274 18.0664 30.1627 16.7529 30.8335 15.5978C31.5228 14.4426 32.473 13.539 33.684 12.8869C34.8951 12.2348 36.2551 11.9088 37.7642 11.9088C39.292 11.9088 40.6614 12.2348 41.8724 12.8869C43.0834 13.539 44.0243 14.4426 44.695 15.5978C45.3844 16.7529 45.729 18.0664 45.729 19.5382C45.729 21.0101 45.3844 22.3329 44.695 23.5067C44.0243 24.6618 43.0834 25.5654 41.8724 26.2175C40.6614 26.8696 39.292 27.1956 37.7642 27.1956ZM37.7642 24.2053C39.0498 24.2053 40.1118 23.7768 40.9502 22.9198C41.7886 22.0628 42.2078 20.9356 42.2078 19.5382C42.2078 18.1409 41.7886 17.0137 40.9502 16.1567C40.1118 15.2997 39.0498 14.8711 37.7642 14.8711C36.4787 14.8711 35.4167 15.2997 34.5783 16.1567C33.7586 17.0137 33.3487 18.1409 33.3487 19.5382C33.3487 20.9356 33.7586 22.0628 34.5783 22.9198C35.4167 23.7768 36.4787 24.2053 37.7642 24.2053ZM63.518 12.0765V24.7363C63.518 29.9903 60.9376 32.6173 55.7767 32.6173C54.4167 32.6173 53.1125 32.431 51.8642 32.0583C50.6346 31.7044 49.6192 31.1827 48.818 30.4933L50.383 27.8663C51.0165 28.4066 51.7897 28.8352 52.7026 29.1519C53.6155 29.4686 54.575 29.627 55.5811 29.627C57.1089 29.627 58.2267 29.2544 58.9347 28.5091C59.6613 27.7825 60.0246 26.6553 60.0246 25.1276V24.4289C59.4657 25.0437 58.7857 25.5188 57.9845 25.8542C57.1834 26.1709 56.317 26.3293 55.3855 26.3293C53.392 26.3293 51.8176 25.7797 50.6625 24.6804C49.526 23.5812 48.9578 21.9323 48.9578 19.7339V12.0765H52.4511V19.2867C52.4511 20.6095 52.7492 21.6063 53.3454 22.277C53.9602 22.9291 54.8266 23.2551 55.9444 23.2551C57.1927 23.2551 58.1802 22.8732 58.9068 22.1093C59.652 21.3455 60.0246 20.2369 60.0246 18.7837V12.0765H63.518ZM72.703 27.1956C71.492 27.1956 70.3089 27.0373 69.1538 26.7205C67.9987 26.4038 67.0764 26.0032 66.3871 25.5188L67.7285 22.8639C68.3992 23.311 69.2004 23.6743 70.1319 23.9538C71.0821 24.2146 72.0137 24.3451 72.9266 24.3451C75.0133 24.3451 76.0566 23.7954 76.0566 22.6962C76.0566 22.1745 75.7865 21.8112 75.2462 21.6063C74.7245 21.4014 73.8768 21.2057 72.703 21.0194C71.4734 20.8331 70.4673 20.6188 69.6848 20.3766C68.9209 20.1344 68.2502 19.7152 67.6726 19.119C67.1137 18.5042 66.8342 17.6565 66.8342 16.5759C66.8342 15.1599 67.4211 14.0327 68.5949 13.1943C69.7873 12.3373 71.3895 11.9088 73.4017 11.9088C74.4264 11.9088 75.4511 12.0299 76.4758 12.2721C77.5005 12.4957 78.3389 12.8031 78.991 13.1943L77.6496 15.8493C76.3827 15.104 74.9574 14.7314 73.3738 14.7314C72.349 14.7314 71.5665 14.8898 71.0262 15.2065C70.5046 15.5046 70.2437 15.9052 70.2437 16.4082C70.2437 16.9671 70.5232 17.3677 71.0821 17.6099C71.6597 17.8335 72.5447 18.0478 73.7371 18.2527C74.9295 18.439 75.9076 18.6533 76.6715 18.8955C77.4353 19.1377 78.0874 19.5476 78.6277 20.1251C79.1867 20.7027 79.4661 21.5225 79.4661 22.5844C79.4661 23.9818 78.8606 25.0996 77.6496 25.938C76.4386 26.7764 74.7897 27.1956 72.703 27.1956ZM90.8585 26.1895C90.4487 26.5249 89.9456 26.7764 89.3494 26.9441C88.7719 27.1118 88.157 27.1956 87.5049 27.1956C85.8654 27.1956 84.5985 26.7671 83.7042 25.9101C82.8099 25.053 82.3628 23.8048 82.3628 22.1652V8.77877H85.8561V12.1883H89.8525V14.9829H85.8561V22.0814C85.8561 22.808 86.0331 23.3669 86.3871 23.7582C86.7597 24.1308 87.2721 24.3171 87.9241 24.3171C88.7067 24.3171 89.3587 24.1122 89.8804 23.7023L90.8585 26.1895ZM93.746 12.0765H97.2393V27H93.746V12.0765ZM95.5066 9.61717C94.8732 9.61717 94.3422 9.42155 93.9137 9.03029C93.4852 8.62041 93.2709 8.11737 93.2709 7.52117C93.2709 6.92498 93.4852 6.43125 93.9137 6.04C94.3422 5.63011 94.8732 5.42517 95.5066 5.42517C96.1401 5.42517 96.6711 5.6208 97.0996 6.01205C97.5281 6.38467 97.7424 6.85977 97.7424 7.43733C97.7424 8.05216 97.5281 8.57383 97.0996 9.00235C96.6897 9.41223 96.1587 9.61717 95.5066 9.61717ZM108.923 24.2333C110.544 24.2333 111.894 23.693 112.975 22.6124L114.82 24.7643C114.167 25.5654 113.329 26.1709 112.304 26.5808C111.28 26.9907 110.125 27.1956 108.839 27.1956C107.199 27.1956 105.756 26.8696 104.507 26.2175C103.259 25.5654 102.29 24.6618 101.601 23.5067C100.93 22.3329 100.595 21.0101 100.595 19.5382C100.595 18.085 100.921 16.7808 101.573 15.6257C102.244 14.4519 103.156 13.539 104.312 12.8869C105.485 12.2348 106.808 11.9088 108.28 11.9088C109.677 11.9088 110.944 12.2162 112.081 12.831C113.236 13.4272 114.149 14.2936 114.82 15.4301C115.49 16.5479 115.826 17.8614 115.826 19.3706L104.395 21.6063C104.749 22.4633 105.318 23.1154 106.1 23.5626C106.883 24.0097 107.824 24.2333 108.923 24.2333ZM108.28 14.7035C106.994 14.7035 105.951 15.1227 105.15 15.9611C104.367 16.7995 103.976 17.9266 103.976 19.3426V19.3706L112.416 17.7497C112.174 16.8367 111.68 16.1008 110.935 15.5419C110.208 14.9829 109.323 14.7035 108.28 14.7035Z" fill="#FFFCF8"/>
<path d="M17.2012 36.2236C18.9739 38.54 25.3935 43.223 36.8904 43.4237C48.3874 43.6244 54.4487 39.1593 56.0422 36.9016" stroke="#FFFCF8" stroke-width="2.28511" stroke-linejoin="round"/>
</svg>
